<?xml version="1.0" encoding="iso-8859-1"?>
<!-- Uploaded to: SVG Repo, www.svgrepo.com, Generator: SVG Repo Mixer Tools -->
<svg version="1.1" id="Layer_1" xmlns="http://www.w3.org/2000/svg" xmlns:xlink="http://www.w3.org/1999/xlink" 
	 viewBox="0 0 512 512" xml:space="preserve">
<rect x="226.931" y="31.78" style="fill:#A43108;" width="56.055" height="440.435"/>
<path style="fill:#F15A24;" d="M459.155,151.51c-48.648,0-87.694-39.05-87.694-87.698V7.314h-88.816v497.371h184.947V151.51H459.155
	z"/>
<rect x="339.038" y="167.915" style="fill:#FFFFFF;" width="72.071" height="48.048"/>
<rect x="283.491" y="7.756" style="fill:#F47B50;" width="47.532" height="496.483"/>
<path style="fill:#F15A24;" d="M50.755,151.51c48.648,0,87.694-39.05,87.694-87.698V7.314h88.816v497.371H42.318V151.51H50.755z"/>
<rect x="178.876" y="7.756" style="fill:#F47B50;" width="47.532" height="496.483"/>
<rect x="42.747" y="239.982" style="fill:#F2F2F2;" width="184.184" height="32.031"/>
<rect x="42.747" y="239.982" style="fill:#E6E6E6;" width="128.125" height="32.031"/>
<rect x="42.747" y="432.17" style="fill:#F2F2F2;" width="184.184" height="32.031"/>
<rect x="42.747" y="432.17" style="fill:#E6E6E6;" width="128.125" height="32.031"/>
<rect x="282.979" y="239.982" style="fill:#F2F2F2;" width="184.184" height="32.031"/>
<rect x="339.038" y="239.982" style="fill:#E6E6E6;" width="128.125" height="32.031"/>
<rect x="282.979" y="432.17" style="fill:#F2F2F2;" width="184.184" height="32.031"/>
<rect x="339.038" y="432.17" style="fill:#E6E6E6;" width="128.125" height="32.031"/>
<polygon style="fill:#F2F2F2;" points="387.085,119.867 282.982,119.867 282.982,87.835 371.069,87.835 "/>
<polygon style="fill:#E6E6E6;" points="387.085,119.867 331.03,119.867 331.03,87.835 371.069,87.835 "/>
<polygon style="fill:#F2F2F2;" points="122.826,119.867 226.928,119.867 226.928,87.835 138.841,87.835 "/>
<polygon style="fill:#E6E6E6;" points="122.826,119.867 178.88,119.867 178.88,87.835 138.841,87.835 "/>
<g>
	<rect x="194.873" y="39.706" style="fill:#FFFFFF;" width="15.673" height="15.673"/>
	<rect x="194.873" y="152.555" style="fill:#FFFFFF;" width="15.673" height="15.673"/>
	<rect x="194.873" y="192.261" style="fill:#FFFFFF;" width="15.673" height="15.673"/>
	<rect x="194.873" y="304.065" style="fill:#FFFFFF;" width="15.673" height="15.673"/>
	<rect x="194.873" y="343.771" style="fill:#FFFFFF;" width="15.673" height="15.673"/>
	<rect x="194.873" y="384.522" style="fill:#FFFFFF;" width="15.673" height="15.673"/>
	<rect x="299.363" y="39.706" style="fill:#FFFFFF;" width="15.673" height="15.673"/>
	<rect x="299.363" y="152.555" style="fill:#FFFFFF;" width="15.673" height="15.673"/>
	<rect x="299.363" y="192.261" style="fill:#FFFFFF;" width="15.673" height="15.673"/>
	<rect x="299.363" y="304.065" style="fill:#FFFFFF;" width="15.673" height="15.673"/>
	<rect x="299.363" y="343.771" style="fill:#FFFFFF;" width="15.673" height="15.673"/>
	<rect x="299.363" y="384.522" style="fill:#FFFFFF;" width="15.673" height="15.673"/>
</g>
<path d="M460.2,144.196c-44.322,0-80.38-36.06-80.38-80.385V0H276.375v24.033h-40.751V0H132.18v63.811
	c0,44.325-36.058,80.385-80.38,80.385H36.049V512h199.576v-32.392h40.751V512h199.576V144.196H460.2z M219.951,80.457h-15.673
	v15.673h15.673v15.673h-48.065v15.673h48.065v104.49h-15.673v15.673h15.673v16.718H84.114v15.673h135.837v144.196H84.114v15.673
	h135.837v16.718h-15.673v15.673h15.673v24.033H51.722v-24.033h134.792l1.045-15.673H51.722v-16.718h15.673v-15.673H51.722V280.033
	h15.673v-15.673H51.722v-16.718h135.837v-15.673H51.722v-72.098H51.8c28.651,0,54.407-12.614,72.021-32.575v0.183h32.392v-15.673
	H134.98c2.873-4.962,5.313-10.204,7.272-15.673h45.307V80.457h-41.153c0.949-5.408,1.447-10.969,1.447-16.646V15.673h72.098V80.457z
	 M235.624,463.935V39.706h40.751v424.229H235.624z M460.278,231.967h-15.673v15.673h15.673v16.718H324.441v15.673h135.837v144.196
	H324.441v15.673h135.837v16.718h-15.673v15.673h15.673v24.033H292.049v-24.033h135.837V456.62H292.049v-16.718h15.673v-15.673
	h-15.673V280.033h15.673v-15.673h-15.673v-16.718h135.837v-15.673H292.049v-104.49h48.065v-15.673h-48.065V96.131h15.673V80.457
	h-15.673V15.673h72.098v48.137c0,5.676,0.498,11.238,1.447,16.646h-41.153v15.673h45.306c1.96,5.469,4.399,10.711,7.272,15.673
	h-21.231v15.673h32.558c17.61,19.854,43.293,32.392,71.856,32.392h0.077v72.098H460.278z"/>
<path d="M419.116,223.969H331.03v-64.062h88.086V223.969z M347.045,207.953H403.1v-32.031h-56.055V207.953z"/>
<rect x="354.743" y="183.902" width="40.751" height="15.673"/>
<rect x="242.939" y="48.065" style="fill:#FFFFFF;" width="24.033" height="15.673"/>
</svg>