<?xml version="1.0" encoding="utf-8"?>
<!-- Uploaded to: SVG Repo, www.svgrepo.com, Generator: SVG Repo Mixer Tools -->
<svg width="800px" height="800px" viewBox="0 0 128 128" xmlns="http://www.w3.org/2000/svg" xmlns:xlink="http://www.w3.org/1999/xlink" aria-hidden="true" role="img" class="iconify iconify--noto" preserveAspectRatio="xMidYMid meet">
<linearGradient id="IconifyId17ecdb2904d178eab9906" gradientUnits="userSpaceOnUse" x1="41.441" y1="113.507" x2="39.066" y2="116.674">
<stop offset=".083">
</stop>
<stop offset="1" stop-opacity="0">
</stop>
</linearGradient>
<path opacity=".6" fill="url(#IconifyId17ecdb2904d178eab9906)" d="M35.54 113.91l7.22 5.45v-6l-6.59-.43z">
</path>
<linearGradient id="IconifyId17ecdb2904d178eab9907" gradientUnits="userSpaceOnUse" x1="41.441" y1="83.465" x2="39.066" y2="86.632">
<stop offset=".083">
</stop>
<stop offset="1" stop-opacity="0">
</stop>
</linearGradient>
<path opacity=".6" fill="url(#IconifyId17ecdb2904d178eab9907)" d="M35.54 83.87l7.22 5.45v-6l-6.59-.44z">
</path>
<linearGradient id="IconifyId17ecdb2904d178eab9908" gradientUnits="userSpaceOnUse" x1="41.441" y1="53.423" x2="39.066" y2="56.59">
<stop offset=".083">
</stop>
<stop offset="1" stop-opacity="0">
</stop>
</linearGradient>
<path opacity=".6" fill="url(#IconifyId17ecdb2904d178eab9908)" d="M35.54 53.83l7.22 5.45v-6l-6.59-.44z">
</path>
<linearGradient id="IconifyId17ecdb2904d178eab9909" gradientUnits="userSpaceOnUse" x1="41.441" y1="23.382" x2="39.066" y2="26.549">
<stop offset=".083">
</stop>
<stop offset="1" stop-opacity="0">
</stop>
</linearGradient>
<path opacity=".6" fill="url(#IconifyId17ecdb2904d178eab9909)" d="M35.54 23.79l7.22 5.45v-6l-6.59-.44z">
</path>
<g>
<path fill="#9e673c" d="M95.207 124.011h-9.97V3.991h9.97z">
</path>
<path fill="#e6a467" d="M100.756 3.991v120h-6.61v-120z">
</path>
</g>
<g fill="#784d30">
<path opacity=".6" d="M92.46 113.91l-7.22 5.45v-6l6.6-.43z">
</path>
<path opacity=".6" d="M92.46 83.87l-7.22 5.45v-6l6.6-.44z">
</path>
<path opacity=".6" d="M92.46 53.83l-7.22 5.45v-6l6.6-.44z">
</path>
<path opacity=".6" d="M92.46 23.79l-7.22 5.45v-6l6.6-.44z">
</path>
</g>
<g>
<path d="M92.63 19.25l-57.51.21l.62-1.54l4.99-3.67c.21-.16.47-.25.73-.25l43.39.38c.28 0 .56.1.78.28l6.52 3.3l.48 1.29z" fill="#ffcc80">
</path>
<path d="M91.61 24.03H36.17c-.58 0-1.04-.47-1.04-1.04v-4.13c0-.58.47-1.04 1.04-1.04h55.44c.58 0 1.04.47 1.04 1.04v4.13c0 .58-.47 1.04-1.04 1.04z" fill="#e6a467">
</path>
<path d="M92.63 109.18l-57.51.21l.62-1.54l4.99-3.67c.22-.16.47-.24.73-.24l43.39.38c.28 0 .56.1.78.28l6.52 3.3l.48 1.28z" fill="#ffcc80">
</path>
<path d="M91.61 113.97H36.17c-.58 0-1.04-.47-1.04-1.04v-4.13c0-.58.47-1.04 1.04-1.04h55.44c.58 0 1.04.47 1.04 1.04v4.13c0 .58-.47 1.04-1.04 1.04z" fill="#e6a467">
</path>
<g>
<path d="M92.63 79.21l-57.51.21l.62-1.54l4.99-3.67c.22-.16.47-.24.73-.24l43.39.38c.28 0 .56.1.78.28l6.52 3.3l.48 1.28z" fill="#ffcc80">
</path>
<path d="M91.61 83.99H36.17c-.58 0-1.04-.47-1.04-1.04v-4.13c0-.58.47-1.04 1.04-1.04h55.44c.58 0 1.04.47 1.04 1.04v4.13c0 .58-.47 1.04-1.04 1.04z" fill="#e6a467">
</path>
</g>
<g>
<path d="M92.63 49.23l-57.51.21l.62-1.54l4.99-3.67c.22-.16.47-.24.73-.24l43.39.38c.28 0 .56.1.78.28l6.52 3.3l.48 1.28z" fill="#ffcc80">
</path>
<path d="M91.61 54.01H36.17c-.58 0-1.04-.47-1.04-1.04v-4.13c0-.58.47-1.04 1.04-1.04h55.44c.58 0 1.04.47 1.04 1.04v4.13c0 .58-.47 1.04-1.04 1.04z" fill="#e6a467">
</path>
</g>
</g>
<g>
<path fill="#9e673c" d="M37.207 124.011h-9.97V3.991h9.97z">
</path>
<path fill="#e6a467" d="M42.756 3.991v120h-6.61v-120z">
</path>
</g>
</svg>